<?xml version="1.0" encoding="utf-8"?>
<svg version="1.1" id="Layer1" xmlns="http://www.w3.org/2000/svg" xmlns:xlink="http://www.w3.org/1999/xlink" x="0px" y="0px"
	 viewBox="0 0 200 60" xml:space="preserve">
<style type="text/css">
    .st0{fill:#243860;}
    .st1{fill:#4c4c4c;}
    .st2{fill:#7abdd9;}
</style>
<g id="logotipoDimensao">
	<g>
		<path class="st0" d="M45.6,47.92c0.48-0.69,0.77-1.25,0.89-1.66c0.12-0.42,0.18-1.08,0.18-1.99V25.59c0-0.74-0.06-1.31-0.18-1.72
			c-0.12-0.41-0.41-0.99-0.86-1.75h5.8c1.65,0,3.3,0.26,4.95,0.79c1.66,0.52,3.14,1.26,4.45,2.22c3.12,2.24,4.69,5.52,4.69,9.84
			c0,3.94-1.25,7.08-3.74,9.43c-2.49,2.35-5.85,3.52-10.07,3.52H45.6z M51.97,25.09v19.86c1.19-0.17,2.12-0.37,2.77-0.61
			c0.66-0.24,1.32-0.63,1.99-1.18c2.15-1.74,3.22-4.34,3.22-7.8c0-3.43-0.92-6.07-2.75-7.91c-0.67-0.69-1.35-1.2-2.06-1.52
			C54.43,25.61,53.38,25.33,51.97,25.09z"/>
		<path class="st0" d="M68.03,47.92c0.36-0.67,0.59-1.21,0.7-1.63c0.11-0.42,0.16-1.04,0.16-1.88V33.29c0-1.05-0.29-2.1-0.86-3.15
			h6.3c-0.57,1.34-0.86,2.4-0.86,3.18v11.13c0,1.19,0.29,2.35,0.86,3.47H68.03z M68.5,25.2c0-0.76,0.26-1.41,0.79-1.93
			c0.52-0.52,1.17-0.79,1.93-0.79c0.76,0,1.41,0.26,1.95,0.77c0.54,0.51,0.81,1.16,0.81,1.95c0,0.79-0.26,1.44-0.79,1.97
			c-0.52,0.52-1.18,0.79-1.97,0.79c-0.76,0-1.41-0.26-1.93-0.79C68.76,26.64,68.5,25.99,68.5,25.2z"/>
		<path class="st0" d="M77.05,47.92c0.36-0.62,0.6-1.14,0.72-1.57c0.12-0.43,0.18-1.07,0.18-1.93V33.29c0-0.76-0.05-1.32-0.14-1.68
			c-0.1-0.36-0.33-0.85-0.72-1.47h5.47v2.9c0.52-0.5,0.92-0.92,1.18-1.25c0.17-0.21,0.49-0.68,0.97-1.4
			c0.93-0.36,1.79-0.54,2.58-0.54c0.83,0,1.58,0.13,2.24,0.38c0.66,0.25,1.16,0.57,1.5,0.97c0.35,0.39,0.67,1.03,0.98,1.91
			c0.55-0.63,0.92-1.08,1.13-1.36c0.2-0.28,0.51-0.74,0.91-1.39c0.5-0.19,0.95-0.33,1.34-0.4c0.39-0.07,0.79-0.11,1.2-0.11
			c1.62,0,2.81,0.38,3.58,1.15c0.76,0.76,1.14,1.97,1.14,3.62v9.86c0,0.91,0.05,1.55,0.14,1.94c0.09,0.38,0.33,0.88,0.72,1.51h-6.33
			c0.33-0.67,0.56-1.26,0.68-1.77c0.12-0.51,0.18-1.09,0.18-1.74v-9.68c0-1.39-0.64-2.08-1.93-2.08c-0.67,0-1.32,0.25-1.97,0.75
			c-0.62,0.43-0.93,0.86-0.93,1.29v9.72c0,0.86,0.05,1.49,0.14,1.88c0.1,0.39,0.33,0.94,0.72,1.63h-6.22
			c0.38-0.65,0.62-1.17,0.72-1.58c0.1-0.41,0.14-1.04,0.14-1.9v-9.61c0-1.46-0.64-2.19-1.93-2.19c-0.69,0-1.26,0.2-1.72,0.61
			l-0.72,0.65l-0.43,0.61v9.9c0,0.88,0.05,1.51,0.14,1.88c0.09,0.37,0.33,0.91,0.72,1.63H77.05z"/>
		<path class="st0" d="M119.33,39.62h-9.87c0,1.24,0.11,2.18,0.34,2.83c0.23,0.64,0.65,1.23,1.27,1.75
			c0.76,0.69,1.75,1.04,2.97,1.04c0.79,0,1.51-0.11,2.18-0.32c0.67-0.21,1.65-0.67,2.93-1.36c-0.24,0.43-0.49,0.91-0.75,1.43
			c-0.33,0.64-0.63,1.4-0.89,2.25c-0.91,0.36-1.67,0.61-2.29,0.75c-0.62,0.14-1.32,0.21-2.11,0.21c-5.58,0-8.37-2.97-8.37-8.91
			c0-2.96,0.7-5.27,2.09-6.94c1.4-1.67,3.33-2.5,5.81-2.5c2.15,0,3.8,0.67,4.97,2c1.17,1.34,1.75,3.24,1.75,5.72L119.33,39.62z
			 M109.75,35.22l-0.18,1.93h5.87v-0.47c0-3.01-0.94-4.51-2.83-4.51C111.03,32.18,110.08,33.19,109.75,35.22z"/>
		<path class="st0" d="M121.73,47.92c0.36-0.62,0.6-1.16,0.72-1.61c0.12-0.45,0.18-1.09,0.18-1.9V33.29c0-0.67-0.05-1.17-0.14-1.52
			c-0.1-0.35-0.33-0.89-0.72-1.63h5.47v3.04c0.55-0.52,0.96-0.95,1.23-1.29c0.27-0.33,0.64-0.83,1.09-1.5
			c0.52-0.19,0.99-0.32,1.4-0.39c0.41-0.07,0.86-0.11,1.36-0.11c3.27,0,4.9,1.55,4.9,4.65v9.91c0,0.91,0.05,1.54,0.14,1.9
			c0.09,0.36,0.35,0.88,0.75,1.57h-6.3c0.33-0.64,0.55-1.2,0.66-1.66c0.11-0.47,0.16-1.08,0.16-1.84V34.9
			c0-1.48-0.75-2.22-2.25-2.22c-0.84,0-1.48,0.25-1.93,0.75l-0.72,0.72l-0.5,0.72v9.55c0,0.86,0.05,1.48,0.14,1.88
			c0.09,0.39,0.32,0.94,0.68,1.63H121.73z"/>
		<path class="st0" d="M151.53,30.6l-0.04,1.47c0,0.52,0.06,1.22,0.18,2.07l-1.18-0.93c-1.07-0.76-2.1-1.14-3.08-1.14
			c-0.67,0-1.21,0.17-1.63,0.52c-0.42,0.35-0.63,0.81-0.63,1.38c0,0.69,0.52,1.43,1.57,2.22l1.65,1.22
			c1.62,1.22,2.66,2.15,3.11,2.79c0.45,0.64,0.68,1.53,0.68,2.65c0,1.34-0.44,2.5-1.33,3.51c-0.62,0.67-1.33,1.15-2.14,1.43
			c-0.8,0.29-1.87,0.43-3.21,0.43c-1.41,0-2.97-0.29-4.67-0.87v-1.89v-2.28c0.43,0.54,0.83,0.98,1.22,1.32
			c0.38,0.34,0.79,0.63,1.22,0.87c0.36,0.16,0.73,0.31,1.11,0.42c0.38,0.12,0.72,0.18,1,0.18c0.64,0,1.18-0.19,1.61-0.57
			c0.43-0.38,0.64-0.86,0.64-1.43c0-0.48-0.13-0.89-0.39-1.23c-0.26-0.34-0.75-0.74-1.47-1.2c-1.93-1.24-3.26-2.32-3.99-3.25
			c-0.73-0.93-1.09-2.01-1.09-3.25c0-1.67,0.57-2.95,1.72-3.85c1.14-0.9,2.78-1.36,4.9-1.36c0.79,0,1.44,0.05,1.95,0.14
			C149.77,30.05,150.53,30.27,151.53,30.6z"/>
		<path class="st0" d="M155.82,34.36c0.26-0.74,0.45-1.34,0.55-1.81c0.11-0.47,0.21-1.03,0.3-1.7c1.12-0.43,2-0.7,2.65-0.82
			c0.64-0.12,1.51-0.18,2.61-0.18c4.05,0,6.08,1.66,6.08,4.97v9.59c0,0.88,0.05,1.53,0.14,1.95c0.1,0.42,0.33,0.94,0.72,1.56h-5.51
			l0.14-1.93c-0.45,0.36-0.91,0.7-1.36,1.04c-0.31,0.24-0.74,0.63-1.29,1.18h-0.5c-0.43,0-0.88-0.02-1.34-0.07
			c-0.47-0.05-0.92-0.11-1.38-0.18c-1-0.21-1.82-0.72-2.45-1.52c-0.63-0.8-0.95-1.72-0.95-2.77c0-0.74,0.18-1.46,0.54-2.16
			c0.36-0.7,0.8-1.24,1.32-1.61c0.52-0.37,1.28-0.77,2.27-1.22c0.99-0.44,1.85-0.76,2.59-0.95c1.12-0.31,1.8-0.6,2.04-0.86
			c0.24-0.26,0.36-0.83,0.36-1.72c0-1.72-0.89-2.58-2.68-2.58c-0.6,0-1.16,0.1-1.7,0.29c-0.54,0.19-1.01,0.39-1.43,0.61
			C157.14,33.68,156.56,33.98,155.82,34.36z M156.11,28.28c0.14-1.41,0.47-2.42,0.98-3.02c0.51-0.61,1.31-0.91,2.38-0.91
			c0.69,0,1.67,0.17,2.93,0.5c0.62,0.17,1.11,0.25,1.47,0.25c0.48,0,0.72-0.21,0.72-0.64h2.75c-0.17,1.34-0.5,2.31-0.98,2.92
			c-0.49,0.61-1.22,0.91-2.2,0.91c-0.33,0-0.71-0.04-1.13-0.11c-0.42-0.07-0.98-0.2-1.68-0.39c-0.7-0.19-1.22-0.29-1.56-0.29
			c-0.31,0-0.52,0.05-0.63,0.14c-0.11,0.09-0.19,0.31-0.23,0.65H156.11z M163.37,43.91V39.8h-2.58c-1.34,0-2,0.92-2,2.75
			c0,1.96,0.86,2.93,2.58,2.93C162.7,45.48,163.37,44.96,163.37,43.91z"/>
		<path class="st0" d="M171.21,39.4c0-2.81,0.87-5.1,2.61-6.87c1.74-1.77,4.02-2.65,6.83-2.65c1.6,0,2.98,0.31,4.15,0.93
			c1.31,0.72,2.37,1.82,3.17,3.33c0.8,1.5,1.2,3.13,1.2,4.87c0,2.7-0.85,4.9-2.54,6.62c-1.69,1.72-3.88,2.58-6.55,2.58
			c-2.58,0-4.7-0.82-6.37-2.47C172.04,44.09,171.21,41.98,171.21,39.4z M176.43,33.39c-0.45,0.41-0.68,1.47-0.68,3.18v0.36
			c0,2.96,0.7,5.18,2.11,6.65c0.48,0.5,1.09,0.93,1.82,1.29c0.74,0.36,1.38,0.54,1.93,0.54c1.22,0,2.02-0.42,2.4-1.25
			c0.31-0.64,0.47-1.73,0.47-3.26c0-1.69-0.24-3.12-0.72-4.29c-0.17-0.4-0.36-0.78-0.57-1.13c-0.21-0.35-0.44-0.65-0.68-0.91
			c-1.12-1.29-2.36-1.93-3.72-1.93c-0.45,0-0.91,0.07-1.36,0.21C176.98,33,176.64,33.18,176.43,33.39z"/>
	</g>
	<g>
		<path class="st1" d="M46.37,52.7c0.59-0.09,1.33-0.15,2.12-0.15c1.36,0,2.29,0.28,2.96,0.84c0.71,0.57,1.14,1.45,1.14,2.68
			c0,1.31-0.44,2.27-1.13,2.89c-0.72,0.66-1.88,0.99-3.29,0.99c-0.77,0-1.35-0.04-1.79-0.1V52.7z M47.69,58.88
			c0.18,0.03,0.46,0.03,0.73,0.03c1.73,0.01,2.75-0.95,2.75-2.79c0.01-1.6-0.92-2.53-2.58-2.53c-0.42,0-0.71,0.03-0.91,0.08V58.88z"
			/>
		<path class="st1" d="M55.7,57.63c0.03,0.95,0.77,1.36,1.62,1.36c0.62,0,1.05-0.1,1.46-0.24l0.19,0.91
			c-0.45,0.19-1.08,0.33-1.83,0.33c-1.71,0-2.71-1.05-2.71-2.66c0-1.46,0.89-2.83,2.57-2.83c1.71,0,2.27,1.4,2.27,2.56
			c0,0.25-0.02,0.44-0.04,0.56H55.7z M58.01,56.7c0.01-0.49-0.2-1.28-1.09-1.28c-0.82,0-1.17,0.74-1.22,1.28H58.01z"/>
		<path class="st1" d="M61.35,58.65c0.29,0.18,0.86,0.39,1.34,0.39c0.58,0,0.84-0.25,0.84-0.59c0-0.36-0.22-0.53-0.86-0.77
			c-1.03-0.35-1.45-0.91-1.45-1.53c0-0.93,0.77-1.64,1.99-1.64c0.58,0,1.09,0.14,1.4,0.31l-0.27,0.93c-0.22-0.13-0.65-0.3-1.11-0.3
			c-0.47,0-0.73,0.24-0.73,0.56c0,0.33,0.25,0.49,0.92,0.73c0.96,0.33,1.39,0.82,1.4,1.6c0,0.96-0.74,1.65-2.14,1.65
			c-0.64,0-1.21-0.15-1.6-0.37L61.35,58.65z"/>
		<path class="st1" d="M67.92,57.63c0.03,0.95,0.77,1.36,1.62,1.36c0.62,0,1.05-0.1,1.46-0.24l0.19,0.91
			c-0.45,0.19-1.08,0.33-1.83,0.33c-1.71,0-2.71-1.05-2.71-2.66c0-1.46,0.88-2.83,2.57-2.83c1.71,0,2.27,1.4,2.27,2.56
			c0,0.25-0.02,0.44-0.04,0.56H67.92z M70.23,56.7c0.01-0.49-0.21-1.28-1.09-1.28c-0.82,0-1.17,0.74-1.22,1.28H70.23z"/>
		<path class="st1" d="M73.63,56.19c0-0.6-0.02-1.11-0.04-1.57h1.15l0.06,0.79h0.03c0.24-0.41,0.81-0.91,1.68-0.91
			c0.92,0,1.87,0.59,1.87,2.26v3.12h-1.33v-2.97c0-0.76-0.28-1.33-1-1.33c-0.53,0-0.9,0.38-1.04,0.78
			c-0.04,0.11-0.06,0.27-0.06,0.42v3.1h-1.33V56.19z"/>
		<path class="st1" d="M81.55,54.63l0.85,2.67c0.15,0.46,0.26,0.89,0.36,1.32h0.03c0.1-0.43,0.22-0.84,0.36-1.32l0.84-2.67h1.39
			l-2.01,5.26h-1.31l-1.95-5.26H81.55z"/>
		<path class="st1" d="M92.13,57.2c0,1.93-1.36,2.8-2.7,2.8c-1.48,0-2.63-1.01-2.63-2.71c0-1.73,1.13-2.78,2.72-2.78
			C91.08,54.51,92.13,55.61,92.13,57.2z M88.16,57.26c0,1.01,0.51,1.78,1.31,1.78c0.76,0,1.28-0.73,1.28-1.8
			c0-0.82-0.37-1.77-1.27-1.77C88.54,55.47,88.16,56.38,88.16,57.26z"/>
		<path class="st1" d="M94.29,52.22h1.33v7.66h-1.33V52.22z"/>
		<path class="st1" d="M98.99,54.63l0.85,2.67c0.15,0.46,0.26,0.89,0.36,1.32h0.03c0.1-0.43,0.22-0.84,0.36-1.32l0.84-2.67h1.39
			l-2.01,5.26H99.5l-1.95-5.26H98.99z"/>
		<path class="st1" d="M106.12,53.16c0,0.39-0.29,0.71-0.76,0.71c-0.44,0-0.73-0.32-0.73-0.71c0-0.41,0.3-0.72,0.74-0.72
			C105.83,52.43,106.11,52.75,106.12,53.16z M104.7,59.88v-5.26h1.33v5.26H104.7z"/>
		<path class="st1" d="M108.55,56.19c0-0.6-0.02-1.11-0.04-1.57h1.13l0.06,0.78h0.03c0.25-0.41,0.72-0.9,1.62-0.9
			c0.69,0,1.23,0.39,1.46,0.97h0.02c0.18-0.29,0.4-0.51,0.64-0.66c0.3-0.21,0.64-0.31,1.08-0.31c0.86,0,1.75,0.59,1.75,2.28v3.1H115
			v-2.9c0-0.87-0.3-1.39-0.94-1.39c-0.45,0-0.79,0.32-0.93,0.7c-0.04,0.12-0.06,0.29-0.06,0.44v3.15h-1.3v-3.04
			c0-0.73-0.29-1.25-0.91-1.25c-0.5,0-0.83,0.39-0.96,0.74c-0.04,0.14-0.06,0.29-0.06,0.44v3.11h-1.3V56.19z"/>
		<path class="st1" d="M119.71,57.63c0.03,0.95,0.77,1.36,1.62,1.36c0.62,0,1.05-0.1,1.46-0.24l0.19,0.91
			c-0.45,0.19-1.08,0.33-1.83,0.33c-1.71,0-2.71-1.05-2.71-2.66c0-1.46,0.89-2.83,2.57-2.83c1.71,0,2.27,1.4,2.27,2.56
			c0,0.25-0.02,0.44-0.04,0.56H119.71z M122.02,56.7c0.01-0.49-0.2-1.28-1.09-1.28c-0.82,0-1.17,0.74-1.22,1.28H122.02z"/>
		<path class="st1" d="M125.42,56.19c0-0.6-0.02-1.11-0.04-1.57h1.15l0.06,0.79h0.03c0.24-0.41,0.81-0.91,1.68-0.91
			c0.92,0,1.87,0.59,1.87,2.26v3.12h-1.33v-2.97c0-0.76-0.28-1.33-1-1.33c-0.53,0-0.9,0.38-1.04,0.78
			c-0.04,0.11-0.06,0.27-0.06,0.42v3.1h-1.33V56.19z"/>
		<path class="st1" d="M134.14,53.28v1.35h1.26v0.99h-1.26v2.32c0,0.65,0.17,0.97,0.68,0.97c0.24,0,0.37-0.01,0.52-0.05l0.02,1
			c-0.19,0.08-0.55,0.14-0.96,0.14c-0.5,0-0.9-0.16-1.14-0.43c-0.29-0.3-0.42-0.79-0.42-1.48v-2.47h-0.74v-0.99h0.74v-0.98
			L134.14,53.28z"/>
		<path class="st1" d="M142.41,57.2c0,1.93-1.36,2.8-2.7,2.8c-1.48,0-2.63-1.01-2.63-2.71c0-1.73,1.13-2.78,2.72-2.78
			C141.37,54.51,142.41,55.61,142.41,57.2z M138.45,57.26c0,1.01,0.51,1.78,1.31,1.78c0.76,0,1.28-0.73,1.28-1.8
			c0-0.82-0.37-1.77-1.27-1.77C138.83,55.47,138.45,56.38,138.45,57.26z"/>
		<path class="st1" d="M147.95,52.7c0.49-0.09,1.14-0.15,2.03-0.15c0.97,0,1.67,0.21,2.14,0.59c0.43,0.36,0.71,0.93,0.71,1.61
			c0,0.69-0.22,1.25-0.62,1.64c-0.54,0.53-1.36,0.79-2.3,0.79c-0.25,0-0.46-0.01-0.65-0.05v2.75h-1.32V52.7z M149.26,56.08
			c0.17,0.05,0.38,0.06,0.65,0.06c0.99,0,1.6-0.5,1.6-1.34c0-0.81-0.56-1.23-1.48-1.23c-0.37,0-0.63,0.03-0.77,0.06V56.08z"/>
		<path class="st1" d="M155.67,57.63c0.03,0.95,0.77,1.36,1.62,1.36c0.62,0,1.05-0.1,1.46-0.24l0.19,0.91
			c-0.45,0.19-1.08,0.33-1.83,0.33c-1.71,0-2.71-1.05-2.71-2.66c0-1.46,0.89-2.83,2.57-2.83c1.71,0,2.27,1.4,2.27,2.56
			c0,0.25-0.02,0.44-0.04,0.56H155.67z M157.98,56.7c0.01-0.49-0.2-1.28-1.09-1.28c-0.82,0-1.17,0.74-1.22,1.28H157.98z"/>
		<path class="st1" d="M161.33,58.65c0.29,0.18,0.86,0.39,1.34,0.39c0.58,0,0.84-0.25,0.84-0.59c0-0.36-0.22-0.53-0.86-0.77
			c-1.03-0.35-1.45-0.91-1.45-1.53c0-0.93,0.77-1.64,1.99-1.64c0.58,0,1.09,0.14,1.4,0.31l-0.27,0.93c-0.22-0.13-0.65-0.3-1.11-0.3
			c-0.47,0-0.73,0.24-0.73,0.56c0,0.33,0.25,0.49,0.92,0.73c0.96,0.33,1.39,0.82,1.4,1.6c0,0.96-0.74,1.65-2.14,1.65
			c-0.64,0-1.21-0.15-1.6-0.37L161.33,58.65z"/>
		<path class="st1" d="M166.9,58.65c0.29,0.18,0.86,0.39,1.34,0.39c0.58,0,0.84-0.25,0.84-0.59c0-0.36-0.22-0.53-0.86-0.77
			c-1.03-0.35-1.45-0.91-1.45-1.53c0-0.93,0.77-1.64,1.99-1.64c0.58,0,1.09,0.14,1.4,0.31l-0.27,0.93c-0.22-0.13-0.65-0.3-1.11-0.3
			c-0.47,0-0.73,0.24-0.73,0.56c0,0.33,0.25,0.49,0.92,0.73c0.96,0.33,1.39,0.82,1.4,1.6c0,0.96-0.74,1.65-2.14,1.65
			c-0.64,0-1.21-0.15-1.6-0.37L166.9,58.65z"/>
		<path class="st1" d="M177.53,57.2c0,1.93-1.36,2.8-2.7,2.8c-1.48,0-2.63-1.01-2.63-2.71c0-1.73,1.13-2.78,2.72-2.78
			C176.49,54.51,177.53,55.61,177.53,57.2z M173.57,57.26c0,1.01,0.51,1.78,1.31,1.78c0.76,0,1.28-0.73,1.28-1.8
			c0-0.82-0.37-1.77-1.27-1.77C173.95,55.47,173.57,56.38,173.57,57.26z"/>
		<path class="st1" d="M183.78,58.62c0,0.47,0.02,0.94,0.09,1.26h-1.2l-0.1-0.58h-0.03c-0.31,0.41-0.86,0.7-1.55,0.7
			c-1.06,0-1.65-0.77-1.65-1.56c0-1.32,1.18-2,3.12-1.99v-0.09c0-0.35-0.14-0.92-1.07-0.92c-0.52,0-1.06,0.16-1.41,0.39l-0.26-0.86
			c0.39-0.24,1.07-0.46,1.9-0.46c1.68,0,2.17,1.07,2.17,2.22V58.62z M182.48,57.31c-0.94-0.01-1.83,0.18-1.83,0.98
			c0,0.52,0.33,0.76,0.76,0.76c0.54,0,0.92-0.35,1.05-0.72c0.03-0.1,0.03-0.19,0.03-0.29V57.31z"/>
		<path class="st1" d="M186.26,52.22h1.33v7.66h-1.33V52.22z"/>
	</g>
	<g>
		<path class="st2" d="M2.84,44.21c0.35-0.32,0.7-0.64,1.05-0.95c0.48-0.41,0.97-0.82,1.46-1.22c0.77-0.65,1.54-1.31,2.32-1.95
			c0.8-0.65,1.6-1.3,2.41-1.94c1.38-1.09,2.78-2.17,4.18-3.24c2.12-1.63,4.28-3.21,6.44-4.79c1.53-1.12,3.09-2.19,4.63-3.29
			c2.05-1.46,4.13-2.89,6.21-4.3c1.59-1.08,3.18-2.17,4.78-3.25c1.76-1.19,3.52-2.38,5.27-3.58c1.12-0.76,2.25-1.52,3.3-2.38
			c0.66-0.54,1.3-1.11,1.77-1.85c0.46-0.72,0.51-1.46,0.17-2.24c-0.27-0.61-0.61-1.17-1.05-1.65c-0.34-0.36-0.79-0.62-1.2-0.92
			c-0.96-0.71-1.89-1.44-2.8-2.21c-0.69-0.58-1.38-1.17-2-1.83C39.21,2,38.65,1.36,38.21,0.61c0.22-0.02,0.35,0.13,0.49,0.21
			c1.61,0.98,3.28,1.82,5.03,2.54c1.47,0.61,2.97,1.13,4.5,1.54c0.73,0.2,1.49,0.3,2.24,0.42c0.94,0.14,1.88,0.25,2.82,0.36
			c0.29,0.03,0.59,0.04,0.89,0.06c1.09,0.06,2.19,0.11,3.29,0.06c1.14-0.05,2.27-0.14,3.41-0.28c2.1-0.26,4.14-0.76,6.19-1.28
			c2.32-0.59,4.59-1.31,6.84-2.14c1.76-0.65,3.5-1.35,5.23-2.08c0.05-0.02,0.09-0.05,0.18,0c-0.26,0.21-0.5,0.42-0.75,0.61
			c-1.88,1.45-3.9,2.69-5.9,3.97c-1.05,0.67-2.12,1.33-3.13,2.07c-0.71,0.52-1.37,1.08-1.79,1.88c-0.38,0.75-0.18,1.45,0.33,2.02
			c0.71,0.81,1.65,1.26,2.61,1.68c1.24,0.54,2.49,1.05,3.73,1.57c2.44,1.04,4.82,2.2,7.17,3.41c1.9,0.98,3.75,2.04,5.56,3.17
			c1.65,1.03,3.25,2.14,4.79,3.32c0.79,0.6,1.55,1.23,2.29,1.9c0.52,0.47,1.05,0.94,1.55,1.44c0.07,0.07,0.13,0.14,0.25,0.27
			c-0.26-0.06-0.41-0.19-0.57-0.29c-1.64-1.06-3.31-2.08-5.02-3.03c-1.16-0.65-2.32-1.27-3.52-1.84c-1.72-0.82-3.47-1.57-5.26-2.24
			c-2.87-1.08-5.82-1.9-8.8-2.61c-1.7-0.4-3.42-0.77-5.14-1.04c-1.1-0.17-2.22-0.29-3.33-0.38c-1.14-0.09-2.29-0.13-3.43-0.1
			c-0.94,0.03-1.88,0.11-2.81,0.22c-2.05,0.24-4.05,0.72-6.01,1.36c-1.16,0.38-2.29,0.84-3.42,1.31c-0.76,0.31-1.54,0.58-2.3,0.89
			c-1.16,0.49-2.33,0.97-3.48,1.48c-2.29,1.02-4.55,2.1-6.78,3.25c-1.86,0.96-3.71,1.95-5.55,2.97c-1.6,0.89-3.19,1.78-4.77,2.7
			c-1.83,1.07-3.67,2.14-5.47,3.26c-2.04,1.26-4.1,2.5-6.14,3.77c-1.43,0.89-2.85,1.8-4.28,2.71c-2.32,1.48-4.63,2.97-6.94,4.46
			c-0.03,0.02-0.07,0.03-0.11,0.04C2.87,44.23,2.85,44.22,2.84,44.21z"/>
		<path class="st2" d="M58.76,0.46c1.39,0.03,2.74,0.23,4.01,0.85c0.27,0.13,0.52,0.29,0.73,0.51c0.37,0.39,0.39,0.72,0.01,1.11
			c-0.47,0.49-1.08,0.77-1.7,1.01c-0.99,0.39-2.02,0.62-3.09,0.66C57.04,4.67,55.39,4.56,53.8,4c-0.37-0.13-0.69-0.36-0.94-0.66
			c-0.24-0.28-0.19-0.85,0.08-1.16c0.44-0.49,1-0.78,1.6-1c1.04-0.38,2.11-0.58,3.22-0.67C58.09,0.49,58.43,0.47,58.76,0.46z"/>
	</g>
	<g>
		<path class="st0" d="M3.15,44.03c-0.01-0.35,0.12-0.61,0.2-0.88c0.44-1.49,0.94-2.96,1.51-4.41c0.59-1.5,1.23-2.96,1.92-4.42
			c1.02-2.17,2.09-4.32,3.17-6.46c0.65-1.3,1.15-2.64,1.4-4.08c0.2-1.11,0.25-2.23,0.17-3.34c-0.12-1.53-0.54-3-1.26-4.36
			c-0.44-0.83-0.99-1.58-1.61-2.29c-0.7-0.79-1.35-1.63-2-2.46C6.02,10.54,5.4,9.75,4.8,8.95c-0.99-1.32-1.91-2.7-2.81-4.08
			C1.17,3.63,0.63,2.27,0,0.92c0.21,0.03,0.24,0.21,0.34,0.32c0.11,0.11,0.21,0.24,0.3,0.36c0.52,0.69,1.08,1.35,1.64,2
			c0.84,0.98,1.72,1.93,2.65,2.82C6.01,7.45,7.15,8.42,8.38,9.3c1.12,0.8,2.3,1.5,3.55,2.06c1.2,0.54,2.45,0.95,3.76,1.16
			c0.93,0.15,1.86,0.27,2.79,0.23c0.97-0.04,1.93-0.16,2.88-0.37c1.49-0.33,2.91-0.87,4.27-1.55c1.26-0.63,2.46-1.37,3.61-2.19
			c0.9-0.64,1.76-1.33,2.61-2.03c0.33-0.27,0.64-0.55,0.96-0.83c0.4-0.36,0.77-0.74,1.17-1.1c0.47-0.42,0.92-0.85,1.35-1.3
			c0.72-0.74,1.44-1.48,2.12-2.25c0.26-0.29,0.57-0.54,0.77-0.9c0.07,0.1,0.03,0.15,0,0.22C37.65,1.59,37,2.71,36.33,3.81
			c-0.62,1.02-1.28,2.01-1.97,2.99c-0.79,1.13-1.59,2.26-2.45,3.34c-0.62,0.78-1.21,1.58-1.83,2.36c-0.5,0.63-1.04,1.23-1.54,1.85
			c-0.54,0.67-0.96,1.41-1.43,2.13c-0.41,0.63-0.8,1.28-1.08,1.99c-0.47,1.21-0.2,2.3,0.51,3.34c0.43,0.62,0.93,1.19,1.44,1.75
			c0.58,0.63,1.22,1.2,1.78,1.84c0.4,0.46,0.84,0.87,1.26,1.31c0.66,0.69,1.34,1.36,1.99,2.06c0.69,0.73,1.38,1.47,2.05,2.23
			c1.02,1.17,2.04,2.35,2.96,3.62c0.76,1.05,1.5,2.13,1.98,3.35c0.03,0.08,0.06,0.16,0.1,0.28c-0.16-0.05-0.25-0.16-0.33-0.26
			c-1.13-1.37-2.41-2.62-3.69-3.85c-1.2-1.15-2.5-2.2-3.87-3.15c-0.98-0.68-2-1.3-3.07-1.82c-1.38-0.67-2.82-1.18-4.33-1.47
			c-1.05-0.2-2.13-0.25-3.19-0.18c-1.49,0.11-2.93,0.47-4.3,1.07c-1.49,0.65-2.85,1.51-4.11,2.53c-0.87,0.7-1.71,1.44-2.48,2.25
			c-0.91,0.98-1.79,1.98-2.6,3.05c-0.82,1.09-1.62,2.19-2.36,3.33c-0.73,1.13-1.43,2.29-2.09,3.46C3.55,43.47,3.46,43.8,3.15,44.03z
			"/>
		<path class="st0" d="M18.36,11.26c-2.63,0.03-5.1-2.35-4.97-5.36c0.11-2.59,2.25-4.95,5.12-4.88c2.66,0.07,4.96,2.27,4.94,5.14
			C23.42,8.93,21.16,11.26,18.36,11.26z"/>
	</g>
</g>
</svg>
